# Blender 4.5.2 LTS
# www.blender.org
mtllib Hexagon.mtl
o Circle
v 1.000000 0.000000 0.000000
v 0.500000 0.000000 -0.866025
v -0.500000 0.000000 -0.866025
v -1.000000 0.000000 -0.000000
v -0.500000 0.000000 0.866025
v 0.500000 0.000000 0.866025
v 0.000000 0.181624 0.000000
v 0.500000 0.141609 -0.866025
v 0.476897 0.181624 -0.826010
v 0.953794 0.181624 0.000000
v 1.000000 0.141609 0.000000
v -0.500000 0.141609 -0.866025
v -0.476897 0.181624 -0.826010
v -1.000000 0.141609 -0.000000
v -0.953794 0.181624 -0.000000
v -0.500000 0.141609 0.866025
v -0.476897 0.181624 0.826010
v 0.500000 0.141609 0.866025
v 0.476897 0.181624 0.826010
vn -0.0000 1.0000 -0.0000
vn -0.0000 -0.0000 -1.0000
vn -0.8660 -0.0000 -0.5000
vn -0.8660 -0.0000 0.5000
vn -0.0000 -0.0000 1.0000
vn 0.8660 -0.0000 0.5000
vn 0.6124 0.7071 -0.3536
vn -0.0000 0.7071 -0.7071
vn -0.6124 0.7071 -0.3536
vn -0.6124 0.7071 0.3536
vn -0.0000 0.7071 0.7071
vn 0.6124 0.7071 0.3536
vn 0.8660 -0.0000 -0.5000
vt 0.530061 0.751133
vt 0.375664 0.661992
vt 0.530061 0.572850
vt 0.361640 0.344015
vt 0.328932 0.346457
vt 0.328240 0.337194
vt 0.360948 0.334752
vt 0.460651 0.348569
vt 0.395235 0.353454
vt 0.394543 0.344190
vt 0.459959 0.339305
vt 0.362527 0.355896
vt 0.361835 0.346633
vt 0.362331 0.353278
vt 0.296916 0.358163
vt 0.296224 0.348900
vt 0.361640 0.344015
vt 0.459763 0.336688
vt 0.427055 0.339130
vt 0.426364 0.329867
vt 0.459072 0.327424
vt 0.684458 0.840274
vt 0.530061 0.929416
vt 0.684459 0.661992
vt 0.375664 0.840274
vt 0.362264 0.332021
vt 0.424657 0.327362
vt 0.361016 0.356009
vt 0.298622 0.360668
vt 0.296916 0.358163
vt 0.395859 0.341460
vt 0.458252 0.336800
vt 0.424461 0.324744
vt 0.451623 0.268380
vt 0.454646 0.268155
vt 0.426168 0.327249
vt 0.362068 0.329403
vt 0.360752 0.332134
vt 0.326837 0.277699
vt 0.323814 0.277925
s 0
usemtl Safe_Hex
f 7/1/1 9/2/1 13/3/1
f 2/4/2 3/5/2 12/6/2 8/7/2
f 3/8/3 4/9/3 14/10/3 12/11/3
f 4/9/4 5/12/4 16/13/4 14/10/4
f 5/14/5 6/15/5 18/16/5 16/17/5
f 6/18/6 1/19/6 11/20/6 18/21/6
f 7/1/1 17/22/1 19/23/1
f 7/1/1 15/24/1 17/22/1
f 7/1/1 19/23/1 10/25/1
f 7/1/1 13/3/1 15/24/1
f 7/1/1 10/25/1 9/2/1
f 9/26/7 10/27/7 11/20/7 8/7/7
f 13/28/8 9/29/8 8/30/8 12/14/8
f 15/31/9 13/32/9 12/11/9 14/10/9
f 17/33/10 15/34/10 14/35/10 16/36/10
f 19/37/11 17/33/11 16/36/11 18/38/11
f 10/39/12 19/37/12 18/38/12 11/40/12
f 1/19/13 2/4/13 8/7/13 11/20/13
