# Blender 4.4.3
# www.blender.org
mtllib Hexagon.mtl
o Circle
v 1.000000 0.000000 0.000000
v 0.500000 0.000000 -0.866025
v -0.500000 0.000000 -0.866025
v -1.000000 0.000000 -0.000000
v -0.500000 0.000000 0.866025
v 0.500000 0.000000 0.866025
v 0.000000 0.181624 0.000000
v 0.500000 0.141609 -0.866025
v 0.476897 0.181624 -0.826010
v 0.953794 0.181624 0.000000
v 1.000000 0.141609 0.000000
v -0.500000 0.141609 -0.866025
v -0.476897 0.181624 -0.826010
v -1.000000 0.141609 -0.000000
v -0.953794 0.181624 -0.000000
v -0.500000 0.141609 0.866025
v -0.476897 0.181624 0.826010
v 0.500000 0.141609 0.866025
v 0.476897 0.181624 0.826010
vn -0.0000 1.0000 -0.0000
vn -0.0000 -0.0000 -1.0000
vn -0.8660 -0.0000 -0.5000
vn -0.8660 -0.0000 0.5000
vn -0.0000 -0.0000 1.0000
vn 0.8660 -0.0000 0.5000
vn 0.6124 0.7071 -0.3536
vn -0.0000 0.7071 -0.7071
vn -0.6124 0.7071 -0.3536
vn -0.6124 0.7071 0.3536
vn -0.0000 0.7071 0.7071
vn 0.6124 0.7071 0.3536
vn 0.8660 -0.0000 -0.5000
vt 0.500000 0.500000
vt 0.086995 0.738449
vt 0.086995 0.261551
vt 0.066987 0.750000
vt 0.066987 0.250000
vt 0.066987 0.750000
vt 0.500000 0.000000
vt 0.933013 0.250000
vt 0.933013 0.750000
vt 0.500000 1.000000
vt 0.913005 0.261551
vt 0.913005 0.738449
vt 0.500000 0.023103
vt 0.500000 0.976897
vt 0.086995 0.261551
vt 0.086995 0.738449
s 0
f 7/1/1 9/2/1 13/3/1
f 2/4/2 3/5/2 12/5/2 8/6/2
f 3/5/3 4/7/3 14/7/3 12/5/3
f 4/7/4 5/8/4 16/8/4 14/7/4
f 5/8/5 6/9/5 18/9/5 16/8/5
f 6/9/6 1/10/6 11/10/6 18/9/6
f 7/1/1 17/11/1 19/12/1
f 7/1/1 15/13/1 17/11/1
f 7/1/1 19/12/1 10/14/1
f 7/1/1 13/15/1 15/13/1
f 7/1/1 10/14/1 9/16/1
f 9/16/7 10/14/7 11/10/7 8/4/7
f 13/3/8 9/2/8 8/6/8 12/5/8
f 15/13/9 13/15/9 12/5/9 14/7/9
f 17/11/10 15/13/10 14/7/10 16/8/10
f 19/12/11 17/11/11 16/8/11 18/9/11
f 10/14/12 19/12/12 18/9/12 11/10/12
f 1/10/13 2/4/13 8/4/13 11/10/13
